<svg width="20" height="20" viewBox="0 0 20 20" fill="none" xmlns="http://www.w3.org/2000/svg">
<path d="M13.7213 13.4194L14.1889 12.9548L13.1029 11.8637L12.6373 12.3282L13.7213 13.4194ZM15.7569 12.76L17.7166 13.8255L18.4498 12.4739L16.4911 11.4094L15.7569 12.76ZM18.0929 15.9421L16.6367 17.3911L17.7207 18.4812L19.1769 17.0332L18.0929 15.9421ZM15.7487 17.8567C14.2617 17.9961 10.4161 17.872 6.25055 13.7311L5.16558 14.8212C9.71056 19.3406 14.0371 19.5621 15.8922 19.3887L15.7487 17.8567ZM6.25055 13.7311C2.28087 9.78296 1.62251 6.46344 1.54047 5.02263L0.00427974 5.1098C0.106829 6.92287 0.922096 10.6023 5.16558 14.8212L6.25055 13.7311ZM7.6606 7.39357L7.95492 7.10028L6.872 6.01018L6.57768 6.30244L7.6606 7.39357ZM8.18873 3.37261L6.89661 1.64568L5.665 2.56863L6.95712 4.29453L8.18873 3.37261ZM2.5475 1.26933L0.937478 2.86909L2.02245 3.96022L3.63145 2.36045L2.5475 1.26933ZM7.11914 6.848C6.57563 6.30244 6.57563 6.30244 6.57563 6.30449H6.57358L6.57051 6.3086C6.52209 6.35801 6.47848 6.41192 6.44027 6.4696C6.38489 6.55164 6.32439 6.65931 6.27311 6.7957C6.14824 7.14777 6.11714 7.52628 6.18287 7.89401C6.32029 8.78106 6.93148 9.95319 8.49638 11.5099L9.58135 10.4188C8.11592 8.96257 7.76726 8.07654 7.70265 7.65814C7.67189 7.4592 7.70368 7.36075 7.7129 7.33819C7.71803 7.32383 7.72008 7.32281 7.7129 7.33204C7.70386 7.34626 7.69356 7.35964 7.68214 7.37203L7.67188 7.38229C7.66857 7.38547 7.66515 7.38855 7.66163 7.39151L7.11914 6.848ZM8.49638 11.5099C10.0623 13.0666 11.2406 13.6737 12.1287 13.809C12.583 13.8788 12.9491 13.8234 13.227 13.7198C13.3824 13.6623 13.5277 13.5806 13.6577 13.4778C13.6753 13.4631 13.6924 13.4477 13.709 13.4317L13.7161 13.4255L13.7192 13.4224L13.7202 13.4204C13.7202 13.4204 13.7213 13.4194 13.1788 12.8738C12.6353 12.3282 12.6383 12.3272 12.6383 12.3272L12.6424 12.3231L12.6486 12.318L12.6589 12.3077C12.6712 12.2967 12.6842 12.2864 12.6978 12.277C12.7081 12.2698 12.705 12.2729 12.6906 12.279C12.665 12.2882 12.5645 12.32 12.3625 12.2893C11.9379 12.2236 11.0458 11.875 9.58135 10.4188L8.49638 11.5099ZM6.89661 1.64466C5.85061 0.249988 3.79552 0.0284814 2.5475 1.26933L3.63145 2.36045C4.17701 1.81797 5.14507 1.87437 5.665 2.56863L6.89661 1.64466ZM1.54149 5.02365C1.52098 4.66883 1.68404 4.29761 2.02245 3.96124L0.936452 2.87012C0.385763 3.41773 -0.0480204 4.19301 0.00427974 5.1098L1.54149 5.02365ZM16.6367 17.3911C16.3558 17.6721 16.0522 17.83 15.7497 17.8577L15.8922 19.3887C16.646 19.318 17.2623 18.9386 17.7217 18.4822L16.6367 17.3911ZM7.95492 7.10028C8.96503 6.09632 9.03989 4.50988 8.18976 3.37364L6.95814 4.29555C7.37142 4.84829 7.30989 5.57332 6.87098 6.0112L7.95492 7.10028ZM17.7176 13.8265C18.5554 14.2818 18.6857 15.3545 18.094 15.9431L19.1789 17.0332C20.5531 15.6662 20.1296 13.3865 18.4508 12.4749L17.7176 13.8265ZM14.1889 12.9558C14.5827 12.5641 15.2164 12.4677 15.7579 12.761L16.4921 11.4104C15.3805 10.8054 14.0022 10.9725 13.1039 11.8647L14.1889 12.9558Z" fill="black"/>
</svg>
