<svg width="24" height="17" viewBox="0 0 24 17" fill="none" xmlns="http://www.w3.org/2000/svg">
<path d="M16.484 8.54729L22.635 3.20329V13.8303L16.484 8.54729ZM8.558 9.45229L10.718 11.3273C11.057 11.6153 11.499 11.7893 11.982 11.7893H12.012C12.496 11.7893 12.938 11.6143 13.281 11.3243L13.278 11.3263L15.438 9.45129L22.004 15.0903H1.995L8.558 9.45229ZM1.986 1.93629H22.016L12.395 10.2923C12.2868 10.3779 12.1529 10.4244 12.015 10.4243H11.988C11.8496 10.4245 11.7152 10.3776 11.607 10.2913L11.608 10.2923L1.986 1.93629ZM1.365 3.20229L7.515 8.54629L1.365 13.8263V3.20229ZM22.965 0.761289C22.725 0.641289 22.443 0.571289 22.144 0.571289H1.859C1.56916 0.571358 1.28331 0.6388 1.024 0.768289L1.035 0.763289C0.724573 0.9164 0.463148 1.15327 0.280254 1.44713C0.0973606 1.741 0.000287348 2.08016 0 2.42629V14.5983C0.000529404 15.0909 0.196452 15.5632 0.54478 15.9115C0.893108 16.2598 1.36539 16.4558 1.858 16.4563H22.141C22.6336 16.4558 23.1059 16.2598 23.4542 15.9115C23.8025 15.5632 23.9985 15.0909 23.999 14.5983V2.42629C23.999 1.69929 23.58 1.06929 22.97 0.766289L22.959 0.761289H22.965Z" fill="black"/>
</svg>
