<svg width="24" height="25" viewBox="0 0 24 25" fill="none" xmlns="http://www.w3.org/2000/svg">
<path d="M12 3.42773C17.8 3.42773 22.501 7.09173 22.501 11.6127C22.501 16.1327 17.8 19.7967 12.001 19.7967C11.4236 19.797 10.8467 19.7603 10.274 19.6867L5.86598 22.5697C5.36498 22.8347 5.18798 22.8057 5.39398 22.1567L6.28598 18.4787C3.40598 17.0187 1.50098 14.4887 1.50098 11.6127C1.50098 7.09273 6.20098 3.42773 12.001 3.42773M17.909 11.4877L19.379 10.0637C19.4638 9.97564 19.5111 9.85807 19.511 9.73578C19.5108 9.61349 19.4632 9.49603 19.3782 9.40814C19.2931 9.32026 19.1773 9.2688 19.0551 9.26462C18.9329 9.26044 18.8138 9.30386 18.723 9.38573L16.795 11.2517V9.70973C16.795 9.58455 16.7452 9.4645 16.6567 9.37598C16.5682 9.28746 16.4482 9.23773 16.323 9.23773C16.1978 9.23773 16.0777 9.28746 15.9892 9.37598C15.9007 9.4645 15.851 9.58455 15.851 9.70973V12.2667C15.8333 12.3397 15.8333 12.4158 15.851 12.4887V13.9277C15.851 14.0529 15.9007 14.173 15.9892 14.2615C16.0777 14.35 16.1978 14.3997 16.323 14.3997C16.4482 14.3997 16.5682 14.35 16.6567 14.2615C16.7452 14.173 16.795 14.0529 16.795 13.9277V12.5647L17.222 12.1517L18.65 14.1847C18.6856 14.2355 18.7309 14.2787 18.7833 14.312C18.8357 14.3452 18.8941 14.3678 18.9552 14.3785C19.0163 14.3892 19.0789 14.3877 19.1394 14.3742C19.1999 14.3607 19.2572 14.3354 19.308 14.2997C19.3587 14.2641 19.402 14.2188 19.4352 14.1664C19.4685 14.1141 19.4911 14.0557 19.5018 13.9946C19.5124 13.9335 19.511 13.8708 19.4975 13.8103C19.4839 13.7498 19.4586 13.6925 19.423 13.6417L17.909 11.4877ZM14.951 13.4117H13.491V9.72473C13.4854 9.60344 13.4333 9.48897 13.3455 9.40511C13.2576 9.32125 13.1409 9.27445 13.0195 9.27445C12.8981 9.27445 12.7813 9.32125 12.6935 9.40511C12.6057 9.48897 12.5536 9.60344 12.548 9.72473V13.8837C12.548 14.1437 12.758 14.3557 13.019 14.3557H14.951C15.0762 14.3557 15.1962 14.306 15.2847 14.2175C15.3732 14.129 15.423 14.0089 15.423 13.8837C15.423 13.7586 15.3732 13.6385 15.2847 13.55C15.1962 13.4615 15.0762 13.4117 14.951 13.4117ZM9.09398 12.3207L9.78998 10.6127L10.428 12.3197L9.09398 12.3207ZM11.617 12.8077L11.619 12.7917C11.6187 12.6728 11.5733 12.5584 11.492 12.4717L10.446 9.67173C10.4021 9.5383 10.3186 9.42143 10.2066 9.33673C10.0945 9.25203 9.95931 9.20354 9.81898 9.19773C9.67762 9.19711 9.53942 9.23955 9.42277 9.3194C9.30612 9.39925 9.21655 9.51273 9.16598 9.64473L7.50398 13.7197C7.45664 13.8356 7.45727 13.9656 7.50575 14.081C7.55423 14.1965 7.64658 14.2879 7.76248 14.3352C7.87838 14.3826 8.00834 14.3819 8.12376 14.3335C8.23919 14.285 8.33064 14.1926 8.37798 14.0767L8.70998 13.2637H10.78L11.078 14.0637C11.0983 14.1235 11.1304 14.1786 11.1724 14.2258C11.2145 14.273 11.2655 14.3112 11.3226 14.3383C11.3796 14.3653 11.4416 14.3807 11.5047 14.3834C11.5678 14.3861 11.6308 14.3761 11.6899 14.354C11.7491 14.3319 11.8032 14.2982 11.8491 14.2548C11.895 14.2114 11.9317 14.1592 11.9571 14.1014C11.9825 14.0436 11.996 13.9812 11.9968 13.9181C11.9977 13.8549 11.9858 13.7922 11.962 13.7337L11.617 12.8077ZM8.29398 9.72973C8.29398 9.60473 8.24439 9.48482 8.15608 9.39633C8.06778 9.30784 7.94799 9.258 7.82298 9.25773H4.57798C4.45279 9.25773 4.33274 9.30746 4.24422 9.39598C4.1557 9.4845 4.10598 9.60455 4.10598 9.72973C4.10598 9.85492 4.1557 9.97497 4.24422 10.0635C4.33274 10.152 4.45279 10.2017 4.57798 10.2017H5.73798V13.9377C5.73798 14.0629 5.7877 14.183 5.87622 14.2715C5.96474 14.36 6.08479 14.4097 6.20998 14.4097C6.33516 14.4097 6.45521 14.36 6.54373 14.2715C6.63225 14.183 6.68198 14.0629 6.68198 13.9377V10.2017H7.82198C7.94716 10.2017 8.06721 10.152 8.15573 10.0635C8.24425 9.97497 8.29398 9.85492 8.29398 9.72973Z" fill="black"/>
</svg>
