<svg width="280" height="486" viewBox="0 0 280 486" fill="none" xmlns="http://www.w3.org/2000/svg">
<path d="M280 460.785C280 474.603 268.694 485.91 254.875 485.91H25.125C11.3062 485.91 0 474.603 0 460.785V25.125C0 11.3063 11.3062 0 25.125 0H254.875C268.694 0 280 11.3063 280 25.125V460.785Z" fill="black"/>
<path d="M184.537 31.416C184.537 33.224 183.023 34.7155 181.123 34.7155H107.711C105.811 34.7155 104.296 33.2238 104.296 31.416C104.296 29.6069 105.811 28.1152 107.711 28.1152H181.123C183.021 28.1152 184.537 29.6068 184.537 31.416Z" fill="#9A98A0" stroke="#C4C4C4"/>
<path d="M98.8192 31.4149C98.8192 33.3306 97.2669 34.8847 95.3506 34.8847C93.4353 34.8847 91.882 33.3305 91.882 31.4149C91.882 29.4995 93.4351 27.9463 95.3506 27.9463C97.2672 27.9463 98.8192 29.4983 98.8192 31.4149Z" fill="#9A98A0" stroke="#C4C4C4"/>
<path d="M157.235 464.435C157.235 472.748 150.493 479.489 142.18 479.489C133.866 479.489 127.127 472.749 127.127 464.435C127.127 456.12 133.866 449.382 142.18 449.382C150.495 449.382 157.235 456.119 157.235 464.435Z" fill="#FEEFE1" stroke="#C4C4C4"/>
<path d="M142.181 452.492H142.181C148.777 452.491 154.124 457.839 154.124 464.436C154.124 471.033 148.777 476.38 142.181 476.38C135.585 476.38 130.239 471.032 130.239 464.436C130.239 457.839 135.585 452.492 142.181 452.492Z" fill="white" stroke="#C4C4C4"/>
<path d="M264.765 418.439C264.821 427.217 257.747 434.378 248.968 434.431L35.8342 435.762C27.0562 435.814 19.8948 428.742 19.8405 419.964L17.6409 67.4742C17.6409 67.4742 17.6409 67.4741 17.6409 67.4741C17.5878 58.6949 24.6597 51.5346 33.4376 51.4792C33.4376 51.4792 33.4376 51.4792 33.4377 51.4792L246.572 50.1487C255.35 50.0945 262.513 57.1664 262.566 65.9454L264.765 418.439Z" fill="white" stroke="#C4C4C4"/>
</svg>
