<svg width="300" height="242" viewBox="0 0 300 242" fill="none" xmlns="http://www.w3.org/2000/svg">
<path d="M150 241.237C232.843 241.237 300 237.316 300 232.479C300 227.643 232.843 223.722 150 223.722C67.1573 223.722 0 227.643 0 232.479C0 237.316 67.1573 241.237 150 241.237Z" fill="black"/>
<path d="M250.41 40.239L250.115 44.7939L250.888 44.8439L251.182 40.2889L250.41 40.239Z" fill="black"/>
<path d="M251.584 21.7393L250.619 36.709L251.391 36.7588L252.356 21.7891L251.584 21.7393Z" fill="black"/>
<path d="M242.403 0.000457855H151.462C149.127 0.0414192 146.891 0.950949 145.19 2.55157C143.489 4.15219 142.446 6.32907 142.263 8.65743L130.512 190.075C130.426 191.187 130.572 192.304 130.942 193.357C131.311 194.409 131.895 195.374 132.656 196.188C133.418 197.003 134.341 197.651 135.366 198.09C136.391 198.529 137.497 198.75 138.612 198.739H229.537C231.876 198.701 234.117 197.791 235.822 196.189C237.528 194.587 238.574 192.407 238.759 190.075L250.503 8.65743C250.589 7.54575 250.442 6.42836 250.073 5.37628C249.704 4.3242 249.12 3.36044 248.358 2.54626C247.596 1.73209 246.673 1.0853 245.648 0.647026C244.623 0.208748 243.518 -0.0114422 242.403 0.000457855Z" fill="black"/>
<path d="M239.517 0.000457855H151.462C149.127 0.0414192 146.891 0.950949 145.19 2.55157C143.489 4.15219 142.446 6.32907 142.263 8.65743L130.512 190.075C130.426 191.187 130.572 192.304 130.942 193.357C131.311 194.409 131.895 195.374 132.656 196.188C133.418 197.003 134.341 197.651 135.366 198.09C136.391 198.529 137.497 198.75 138.612 198.739H226.651C228.991 198.701 231.232 197.791 232.937 196.189C234.642 194.587 235.689 192.407 235.873 190.075L247.617 8.65743C247.703 7.54575 247.557 6.42836 247.187 5.37628C246.818 4.3242 246.234 3.36044 245.472 2.54626C244.71 1.73209 243.788 1.0853 242.762 0.647026C241.737 0.208748 240.632 -0.0114422 239.517 0.000457855Z" fill="black"/>
<path d="M232.09 185.333H135.231C134.869 185.334 134.51 185.26 134.177 185.117C133.845 184.973 133.545 184.763 133.297 184.499C133.049 184.235 132.858 183.923 132.735 183.582C132.613 183.241 132.562 182.878 132.585 182.517L143.215 18.3516C143.258 17.6811 143.555 17.0522 144.045 16.5925C144.535 16.1327 145.181 15.8765 145.853 15.876H242.72C243.082 15.8763 243.441 15.9509 243.774 16.0953C244.106 16.2396 244.406 16.4506 244.654 16.7152C244.902 16.9798 245.093 17.2924 245.215 17.6337C245.338 17.9751 245.389 18.3379 245.366 18.6997L234.736 182.857C234.692 183.529 234.395 184.159 233.903 184.619C233.412 185.079 232.763 185.334 232.09 185.333Z" fill="white"/>
<path d="M210.568 10.5067H175.36C175.178 10.5083 174.999 10.4722 174.832 10.4008C174.666 10.3294 174.516 10.2241 174.393 10.0917C174.269 9.95936 174.174 9.80273 174.114 9.63178C174.054 9.46082 174.03 9.27928 174.044 9.09866C174.08 8.72345 174.251 8.37415 174.526 8.11633C174.801 7.8585 175.161 7.70989 175.538 7.69839H210.746C210.926 7.69569 211.106 7.73074 211.272 7.8013C211.439 7.87186 211.589 7.97637 211.712 8.10815C211.836 8.23994 211.931 8.3961 211.991 8.56665C212.051 8.73721 212.075 8.91841 212.061 9.09866C212.027 9.47526 211.856 9.82643 211.581 10.0858C211.306 10.3453 210.946 10.495 210.568 10.5067Z" fill="white"/>
<path d="M183.088 192.225C183.031 193.152 182.626 194.024 181.952 194.664C181.279 195.304 180.389 195.666 179.46 195.676C179.013 195.68 178.571 195.592 178.161 195.417C177.75 195.243 177.38 194.986 177.073 194.662C176.766 194.339 176.529 193.955 176.376 193.536C176.224 193.117 176.16 192.67 176.187 192.225C176.246 191.299 176.652 190.43 177.325 189.791C177.998 189.153 178.888 188.792 179.815 188.782C180.261 188.777 180.703 188.864 181.114 189.038C181.525 189.211 181.895 189.467 182.202 189.79C182.509 190.114 182.746 190.497 182.899 190.915C183.051 191.334 183.116 191.78 183.088 192.225Z" fill="white"/>
<path opacity="0.2" d="M221.538 61.3193H138.829L133.568 142.474H221.538C223.833 142.47 226.034 141.556 227.657 139.934C229.281 138.312 230.196 136.112 230.203 133.817V70.0072C230.205 67.7065 229.293 65.499 227.668 63.8699C226.044 62.2408 223.839 61.3234 221.538 61.3193Z" fill="black"/>
<path d="M213.832 54.1328H112.471C107.685 54.1328 103.806 58.0121 103.806 62.7975V126.63C103.806 131.415 107.685 135.295 112.471 135.295H213.832C218.618 135.295 222.497 131.415 222.497 126.63V62.7975C222.497 58.0121 218.618 54.1328 213.832 54.1328Z" fill="black"/>
<path d="M101.036 53.195C100.833 53.1942 100.639 53.1136 100.495 52.9707L99.1023 51.5858C98.9566 51.4402 98.8748 51.2426 98.8748 51.0366C98.8748 50.8306 98.9566 50.633 99.1023 50.4873C99.248 50.3416 99.4455 50.2598 99.6516 50.2598C99.8576 50.2598 100.055 50.3416 100.201 50.4873L101.586 51.8798C101.73 52.0248 101.811 52.2209 101.811 52.4252C101.811 52.6296 101.73 52.8257 101.586 52.9707C101.513 53.0424 101.428 53.0991 101.333 53.1376C101.239 53.1761 101.138 53.1956 101.036 53.195Z" fill="black"/>
<path d="M98.9399 58.0531H96.9826C96.7774 58.0531 96.5807 57.9716 96.4356 57.8265C96.2905 57.6815 96.209 57.4847 96.209 57.2795C96.209 57.0743 96.2905 56.8775 96.4356 56.7325C96.5807 56.5874 96.7774 56.5059 96.9826 56.5059H98.9399C99.1451 56.5059 99.3419 56.5874 99.487 56.7325C99.632 56.8775 99.7135 57.0743 99.7135 57.2795C99.7135 57.4847 99.632 57.6815 99.487 57.8265C99.3419 57.9716 99.1451 58.0531 98.9399 58.0531Z" fill="black"/>
<path d="M105.964 51.1067C105.768 51.1071 105.579 51.0331 105.436 50.8995C105.292 50.766 105.205 50.5828 105.191 50.3872L105.052 48.4299C105.044 48.3282 105.057 48.2261 105.089 48.1294C105.121 48.0328 105.172 47.9434 105.239 47.8665C105.306 47.7895 105.388 47.7266 105.479 47.6812C105.57 47.6358 105.669 47.609 105.771 47.6021C105.975 47.5894 106.176 47.6579 106.33 47.7927C106.483 47.9275 106.577 48.1176 106.591 48.3216L106.738 50.2789C106.745 50.3805 106.733 50.4826 106.7 50.5793C106.668 50.676 106.617 50.7654 106.55 50.8423C106.484 50.9192 106.402 50.9822 106.311 51.0275C106.22 51.0729 106.12 51.0998 106.019 51.1067H105.964Z" fill="black"/>
<path d="M171.809 126.946L202.932 158.062V126.946H171.809Z" fill="black"/>
<path d="M180.342 113.315L178.794 106.747C178.404 105.02 178.404 103.228 178.794 101.501L180.945 92.1481C181.825 88.1596 181.349 83.9914 179.591 80.3043C177.834 76.6172 174.896 73.6221 171.244 71.7938C171.312 71.6217 171.372 71.4461 171.422 71.2677C171.549 70.7003 171.563 70.1135 171.463 69.5407C171.363 68.9678 171.151 68.4203 170.84 67.9293C170.529 67.4383 170.123 67.0134 169.648 66.6789C169.172 66.3444 168.635 66.1069 168.068 65.9799C167.501 65.8529 166.914 65.839 166.341 65.9388C165.768 66.0386 165.22 66.2502 164.729 66.5617C164.238 66.8731 163.814 67.2782 163.479 67.7538C163.145 68.2294 162.907 68.7662 162.78 69.3337C162.742 69.5145 162.718 69.6982 162.711 69.8829C158.628 69.9787 154.693 71.4338 151.531 74.0178C148.368 76.6017 146.158 80.1669 145.25 84.1488L143.153 93.5097C142.768 95.2333 142.001 96.8485 140.91 98.2366L136.74 103.536C136.332 104.056 136.062 104.67 135.956 105.323C135.849 105.975 135.91 106.643 136.132 107.266C136.353 107.888 136.729 108.444 137.223 108.882C137.718 109.321 138.315 109.626 138.96 109.772L175.708 118.003C176.35 118.142 177.017 118.116 177.647 117.929C178.277 117.741 178.849 117.398 179.311 116.931C179.773 116.463 180.11 115.887 180.29 115.255C180.47 114.623 180.488 113.956 180.342 113.315Z" fill="white"/>
<path d="M152.591 115.342C152.312 115.28 152.021 115.288 151.746 115.366C151.47 115.443 151.218 115.587 151.012 115.785C150.805 115.983 150.65 116.229 150.562 116.502C150.473 116.774 150.453 117.064 150.503 117.345C150.714 118.588 151.29 119.741 152.158 120.655C153.026 121.57 154.147 122.205 155.377 122.481C156.607 122.756 157.892 122.659 159.067 122.202C160.242 121.745 161.255 120.948 161.976 119.914C162.14 119.681 162.245 119.411 162.281 119.127C162.316 118.844 162.282 118.556 162.18 118.29C162.079 118.023 161.913 117.785 161.698 117.598C161.483 117.41 161.225 117.278 160.947 117.214L152.591 115.342Z" fill="white"/>
<path d="M124.369 102.323C124.177 102.324 123.988 102.277 123.819 102.187C123.65 102.096 123.507 101.965 123.402 101.804C119.748 96.3299 118.418 89.6283 119.705 83.1736C120.992 76.7189 124.79 71.0397 130.264 67.3852C130.521 67.2149 130.834 67.1534 131.136 67.2144C131.438 67.2753 131.703 67.4536 131.873 67.7101C132.044 67.9666 132.105 68.2802 132.044 68.582C131.983 68.8838 131.805 69.149 131.548 69.3193C126.593 72.6383 123.158 77.7886 121.997 83.6388C120.837 89.4891 122.046 95.5607 125.359 100.52C125.53 100.775 125.593 101.088 125.534 101.39C125.474 101.692 125.297 101.958 125.042 102.129C124.843 102.26 124.608 102.328 124.369 102.323Z" fill="white"/>
<path d="M129.282 99.0245C129.092 99.0233 128.905 98.9754 128.737 98.885C128.57 98.7947 128.428 98.6646 128.322 98.5062C125.541 94.336 124.529 89.2324 125.508 84.3164C126.487 79.4004 129.378 75.0741 133.544 72.2877C133.671 72.2029 133.814 72.1439 133.964 72.1141C134.113 72.0843 134.268 72.0844 134.417 72.1142C134.567 72.144 134.71 72.203 134.837 72.2879C134.964 72.3727 135.073 72.4818 135.157 72.6088C135.242 72.7358 135.301 72.8782 135.331 73.028C135.361 73.1778 135.361 73.332 135.331 73.4818C135.301 73.6316 135.242 73.774 135.157 73.901C135.072 74.0279 134.963 74.137 134.836 74.2218C131.179 76.6625 128.641 80.456 127.781 84.7679C126.921 89.0798 127.808 93.5568 130.249 97.2142C130.42 97.4697 130.483 97.7827 130.423 98.0844C130.364 98.3861 130.187 98.6519 129.932 98.8234C129.739 98.9521 129.513 99.0221 129.282 99.0245Z" fill="white"/>
<path d="M134.202 95.7384C134.013 95.7394 133.826 95.6933 133.658 95.6041C133.491 95.515 133.348 95.3857 133.243 95.2278C132.295 93.8085 131.636 92.2162 131.305 90.5421C130.973 88.8679 130.974 87.1448 131.309 85.4712C131.644 83.7977 132.306 82.2066 133.256 80.789C134.206 79.3714 135.427 78.1552 136.848 77.2098C137.104 77.0512 137.411 76.9979 137.705 77.0612C137.999 77.1245 138.257 77.2995 138.424 77.5492C138.592 77.799 138.656 78.1041 138.603 78.4001C138.55 78.6961 138.384 78.96 138.14 79.1362C136.975 79.9142 135.974 80.9143 135.195 82.0792C134.416 83.2441 133.874 84.551 133.6 85.9254C133.327 87.2997 133.326 88.7145 133.6 90.089C133.873 91.4634 134.414 92.7706 135.193 93.9358C135.362 94.1919 135.423 94.5043 135.364 94.8054C135.304 95.1065 135.129 95.3722 134.875 95.545C134.676 95.6763 134.441 95.7438 134.202 95.7384Z" fill="white"/>
<path d="M191.273 118.638C191.014 118.637 190.762 118.55 190.558 118.389C190.354 118.229 190.21 118.004 190.149 117.752C190.087 117.5 190.112 117.235 190.219 116.998C190.326 116.762 190.509 116.568 190.739 116.448C196.04 113.71 200.036 108.979 201.849 103.295C203.663 97.6109 203.145 91.4396 200.41 86.1374C200.327 86.0013 200.272 85.8495 200.251 85.6915C200.229 85.5335 200.24 85.3727 200.283 85.2191C200.326 85.0656 200.4 84.9225 200.501 84.799C200.602 84.6754 200.727 84.5739 200.869 84.5009C201.011 84.4278 201.166 84.3848 201.325 84.3745C201.484 84.3642 201.644 84.3868 201.794 84.4409C201.944 84.495 202.081 84.5795 202.197 84.689C202.313 84.7985 202.405 84.9308 202.468 85.0775C203.962 87.9749 204.87 91.1382 205.141 94.3868C205.413 97.6354 205.041 100.906 204.048 104.011C203.056 107.116 201.461 109.995 199.355 112.483C197.249 114.972 194.674 117.021 191.776 118.514C191.619 118.591 191.448 118.633 191.273 118.638Z" fill="white"/>
<path d="M188.558 113.384C188.298 113.383 188.047 113.295 187.843 113.135C187.639 112.974 187.495 112.75 187.433 112.498C187.372 112.246 187.397 111.981 187.504 111.744C187.611 111.508 187.794 111.314 188.024 111.194C189.96 110.196 191.68 108.826 193.086 107.163C194.492 105.499 195.557 103.575 196.218 101.5C196.88 99.425 197.126 97.2398 196.943 95.0694C196.759 92.8991 196.15 90.7862 195.149 88.8517C195.008 88.5778 194.981 88.2588 195.074 87.965C195.168 87.6712 195.374 87.4266 195.648 87.2851C195.922 87.1435 196.241 87.1165 196.535 87.2101C196.829 87.3037 197.073 87.5102 197.215 87.7841C198.355 89.9894 199.049 92.3979 199.258 94.8718C199.467 97.3457 199.186 99.8365 198.432 102.202C197.677 104.567 196.464 106.76 194.862 108.657C193.259 110.553 191.298 112.114 189.092 113.252C188.927 113.34 188.744 113.385 188.558 113.384Z" fill="white"/>
<path d="M185.842 108.132C185.584 108.128 185.334 108.038 185.132 107.876C184.93 107.715 184.787 107.491 184.726 107.24C184.665 106.988 184.689 106.724 184.795 106.488C184.9 106.252 185.081 106.057 185.309 105.935C186.554 105.294 187.661 104.414 188.566 103.344C189.471 102.275 190.156 101.038 190.582 99.7032C191.008 98.3688 191.167 96.9634 191.049 95.5675C190.932 94.1717 190.54 92.8127 189.896 91.5685C189.755 91.2946 189.728 90.9756 189.821 90.6818C189.915 90.388 190.121 90.1434 190.395 90.0019C190.669 89.8603 190.988 89.8333 191.282 89.9269C191.576 90.0205 191.82 90.2269 191.962 90.5009C193.536 93.5648 193.831 97.1283 192.781 100.409C191.731 103.69 189.422 106.42 186.361 108C186.2 108.083 186.023 108.128 185.842 108.132Z" fill="white"/>
</svg>
