<svg width="24" height="25" viewBox="0 0 24 25" fill="none" xmlns="http://www.w3.org/2000/svg">
<path d="M12 24.4277C5.3724 24.4277 0 19.0553 0 12.4277C0 5.80013 5.3724 0.427734 12 0.427734C18.6276 0.427734 24 5.80013 24 12.4277C24 19.0553 18.6276 24.4277 12 24.4277ZM12 22.0277C14.5461 22.0277 16.9879 21.0163 18.7882 19.216C20.5886 17.4156 21.6 14.9738 21.6 12.4277C21.6 9.88166 20.5886 7.43986 18.7882 5.63951C16.9879 3.83916 14.5461 2.82773 12 2.82773C9.45392 2.82773 7.01212 3.83916 5.21178 5.63951C3.41143 7.43986 2.4 9.88166 2.4 12.4277C2.4 14.9738 3.41143 17.4156 5.21178 19.216C7.01212 21.0163 9.45392 22.0277 12 22.0277ZM13.2 12.4277H18V14.8277H10.8V6.42773H13.2V12.4277Z" fill="black"/>
</svg>
